<svg id="レイヤー_1" data-name="レイヤー 1" xmlns="http://www.w3.org/2000/svg" viewBox="0 0 1867.59 405.23"><defs><style>.cls-1{fill:#fff;}</style></defs><path class="cls-1" d="M499.6,10.1C413.3,21.2,344.5,79.2,323.4,158.5c-2.5,9.3-5.4,24.4-5.4,27.8,0,1.6,3.1,1.7,55.2,1.5l55.2-.3,1.3-8c3.2-19.4,12.3-40.8,23.2-54.6,13.8-17.6,37.7-31.1,59.2-33.5l5.9-.7V9l-5.7.1C509.1,9.2,503.4,9.7,499.6,10.1Z" transform="translate(-35 -9)"/><path class="cls-1" d="M542,50V91h2.9c5.8,0,22,4.9,30.7,9.3,28.7,14.4,46.9,42,53.5,80.9l1.1,6.8H740.3l-.7-7c-.8-9-6.5-30.9-11-42.8-24-62.5-79.3-109-147.9-124.3C569.3,11.4,553.1,9,546.8,9H542Z" transform="translate(-35 -9)"/><path class="cls-1" d="M1738.8,11c-36.4,3.5-66.9,15.9-87.8,35.6-23.4,22.1-34,49.5-32.6,84.4.7,19.9,4.2,34.6,11.5,49.3l3.6,7.2,109,.2,109,.2-2.5-2.1c-4.8-4-30.7-15.8-45.5-20.7-8.2-2.8-21.5-6.6-29.5-8.6-19.9-5-32.1-9-41.1-13.6-9.4-4.7-13.2-7.8-16.7-13.8-2.3-4-2.7-5.7-2.7-12.6,0-7.1.3-8.6,3.1-13.5,3.5-6.1,9.2-10.6,18.2-14.2,5.2-2.1,7.2-2.3,24.7-2.3,22,0,31.5,1.6,54.6,9.2,12.9,4.2,36.5,14.8,45.6,20.6l4.2,2.6,2-6.2c7.2-22.2,19.1-62.9,18.6-63.7-1.1-1.7-17.6-11.2-29.8-17a230.42,230.42,0,0,0-64.2-19.5C1778.3,10.6,1750.7,9.8,1738.8,11Z" transform="translate(-35 -9)"/><path class="cls-1" d="M960.8,12.5c-47.6,6-88.7,25-120.1,55.4-23.4,22.7-38.2,46.1-48.2,76.4-4.1,12.6-8.1,30.5-8.7,39.2l-.3,4,55.2.3,55.2.2,1.1-5.7c4.4-22.7,14.8-43.3,29.4-57.9,27.3-27.2,70.4-37.3,117.4-27.4,25.8,5.4,52.1,17.8,73.9,34.6l8.3,6.4V49l-7.7-5.1c-21.5-14.1-52.5-25-85.7-30.1C1013.5,11.2,976.3,10.5,960.8,12.5Z" transform="translate(-35 -9)"/><path class="cls-1" d="M35,103.5V188l113.3-.2,113.2-.3v-21l-61.2-.3L139,166V98l77.3-.2,77.2-.3.3-39.3L294,19H35Z" transform="translate(-35 -9)"/><path class="cls-1" d="M1185.2,103.2l.3,84.3h105V19.5l-52.8-.3L1185,19Z" transform="translate(-35 -9)"/><path class="cls-1" d="M1455,103.5V188l50.8-.2,50.7-.3.3-84.3L1557,19H1455Z" transform="translate(-35 -9)"/><path class="cls-1" d="M35,307.5V404l51.8-.2,51.7-.3.3-79.8L139,244H262V211H35Z" transform="translate(-35 -9)"/><path class="cls-1" d="M316.6,211.8c-.3.4,0,6.8.5,14.2,5.8,82.3,59,149.8,139,176.5,19,6.3,45.3,11.5,58.1,11.5H518V332.2l-5.6-.7c-15-1.8-33-9.5-44.9-19-17.4-13.9-29.1-33.3-35.5-59-2.8-11.2-5-27.3-5-37V211H372.1C341.8,211,316.9,211.4,316.6,211.8Z" transform="translate(-35 -9)"/><path class="cls-1" d="M631.7,211.7c-.4.3-.7,4.3-.7,8.7,0,24.9-9.4,55.8-22.4,74a91.56,91.56,0,0,1-59.1,36.7l-7.5,1.3V414h3.8c12.4-.1,39-5.3,56.7-11.1,58.3-19.3,104-62,125.9-117.8,7.4-18.8,13.6-49.9,13.6-68.4V211H687.2C657,211,632,211.3,631.7,211.7Z" transform="translate(-35 -9)"/><path class="cls-1" d="M782.3,223.7c3.6,73.4,43.1,134,108.2,165.9,32.7,16.1,68.6,23.4,108,22.1,45.5-1.6,88.5-13.5,117.8-32.7l7.7-5.1V284.8l-6.2,5c-15.6,12.4-38.9,25-57.6,31.1-26.7,8.9-57.7,11-82.7,5.7-40.5-8.5-70.3-37.5-80.6-78.2-2.2-8.7-4.9-29.3-4.9-37,0-.2-24.8-.4-55.2-.4H781.7Z" transform="translate(-35 -9)"/><path class="cls-1" d="M1185,223.7c0,23.9,3.2,49.4,8.6,68.3,19.7,69.3,71.8,111.6,148.9,121.1,12.8,1.5,44.1,1.5,57,0,80.6-9.8,133.3-54.8,150.9-128.7,4-17.1,5.6-30.1,6.3-52.7l.6-20.7h-102l-.7,14.7c-.4,8.2-1.3,19.3-2.1,24.8-5.6,38-23.2,61.2-53.5,70.7-6.8,2.1-9.4,2.3-26.5,2.3s-19.7-.2-26.5-2.3c-12.7-4-20.7-8.8-29.5-17.6-16.6-16.8-24.1-38.6-25.4-74.1l-.6-18-52.7-.3L1185,211Z" transform="translate(-35 -9)"/><path class="cls-1" d="M1657,214.2c6,5.2,21.1,14.8,30.5,19.3,12.1,5.8,28.5,11.4,50.1,17,42.8,11.1,60,19.3,66.7,32,1.9,3.4,2.2,5.6,2.2,15s-.3,11.6-2.4,15.7c-5.2,10.7-17.2,18.4-33.7,21.7l-8.8,1.8-2.7,6.4c-1.5,3.5-3.4,6.8-4.2,7.3-1,.6-8.8-2.3-25.9-9.7-13.5-5.9-25-10.7-25.5-10.7s-1.6,4.6-2.3,10.2c-1.4,12.3-2.2,16-3.6,16.5-.6.2-15.4-15.3-33-34.4s-32.3-35-32.9-35.3c-.8-.3-20.7,62-23,72.1-.5,2.4.3,3.3,8.2,9.1,30.6,22.7,68.9,37.4,108.5,41.7,12.5,1.4,41.1,1.4,53.6,0,39.4-4.3,71.7-18.1,93.2-40,14.2-14.4,23.1-31.3,28.3-53.3,2.9-12.7,3.1-45.8.3-58.6-3.4-15.7-9.2-29.4-17.3-40.8l-4.4-6.2H1766.2l-112.7.1Z" transform="translate(-35 -9)"/></svg>