<?xml version="1.0" encoding="utf-8"?>
<!-- Generator: Adobe Illustrator 24.2.0, SVG Export Plug-In . SVG Version: 6.00 Build 0)  -->
<svg version="1.1" id="レイヤー_1" xmlns="http://www.w3.org/2000/svg" xmlns:xlink="http://www.w3.org/1999/xlink" x="0px"
	 y="0px" viewBox="0 0 256 256" style="enable-background:new 0 0 256 256;" xml:space="preserve">
<style type="text/css">
	.st0{fill:#FFFFFF;}
	.st1{fill:#333333;}
</style>
<g>
	<g>
		<path class="st0" d="M80.08,107.74l0.02,47.27c0.02,6.73,1.14,12.98,2.6,18.31c4.05,14.89,6.3,25.13,6.96,38.78
			c0.26,5.04,0.08,10.13-0.47,15.16l-0.02,0.13c-0.46,4.37,1.78,8.67,5.96,10.99c6.79,3.81,19.35,8.42,40.16,8.35
			c22.03-0.08,33.94-5.82,39.76-10.12c3.05-2.23,4.81-5.58,4.8-9.1l0-0.07c0.86-6.94,1.49-20.26,8.83-31.96
			c3.27-5.22,5.19-11.16,5.19-17.32v-27.97L80.08,107.74z"/>
		<path class="st1" d="M134.78,250c-21.16,0-34.1-4.76-41.25-8.77c-5.23-2.9-8.23-8.47-7.62-14.19c0-0.06,0.03-0.25,0.04-0.3
			c0.52-4.81,0.68-9.73,0.43-14.47c-0.65-13.29-2.82-23.25-6.85-38.09c-1.78-6.48-2.7-12.93-2.72-19.15l-0.02-47.29
			c0-1.81,1.47-3.28,3.28-3.28c0,0,0,0,0,0c1.81,0,3.28,1.47,3.28,3.28l0.02,47.27c0.02,5.64,0.86,11.51,2.49,17.44
			c4.16,15.3,6.4,25.61,7.08,39.49c0.26,5.08,0.1,10.36-0.48,15.67c-0.01,0.05-0.03,0.24-0.04,0.29c-0.31,2.98,1.33,5.95,4.31,7.6
			c6.48,3.64,18.32,7.94,38.05,7.94c0.17,0,0.34,0,0.5,0c21.87-0.08,33.09-5.97,37.83-9.48c2.22-1.62,3.47-3.97,3.47-6.45
			c0-0.14,0.01-0.35,0.03-0.48c0.1-0.8,0.19-1.68,0.29-2.63c0.8-7.37,2.13-19.7,9.01-30.67c3.07-4.89,4.69-10.28,4.69-15.58v-27.97
			c0-1.81,1.47-3.28,3.28-3.28c1.81,0,3.28,1.47,3.28,3.28v27.97c0,6.53-1.97,13.12-5.69,19.06c-6.08,9.7-7.26,20.65-8.04,27.9
			c-0.1,0.91-0.19,1.76-0.28,2.53c-0.05,4.58-2.28,8.78-6.14,11.61c-6.56,4.86-19.14,10.67-41.68,10.75
			C135.13,250,134.96,250,134.78,250z"/>
	</g>
	<g>
		<path class="st1" d="M127.14,198.93c-1.81,0-3.28-1.47-3.28-3.28c0-22.88,5.2-39.62,15.46-49.75c9.51-9.39,19.82-9.35,20.28-9.35
			c1.81,0.02,3.26,1.51,3.24,3.32c-0.02,1.79-1.49,3.24-3.28,3.24c-0.01,0-0.01,0-0.02,0c-1.25,0-29.12,0.67-29.12,52.54
			C130.42,197.46,128.95,198.93,127.14,198.93z"/>
	</g>
	<g>
		<path class="st0" d="M145.13,142.68c-0.08,0-0.16,0-0.24,0c-7.15-0.09-12.78-6.16-12.78-13.31l0-35.93l0-7.39v-5.57
			c0-7.28,5.9-13.2,13.2-13.2c7.28,0,13.02,5.92,13.02,13.2l0.01,48.98c0,7.17-5.7,13.15-12.87,13.22
			C145.35,142.68,145.24,142.68,145.13,142.68z"/>
		<path class="st1" d="M145.13,145.96h-0.24c-8.87-0.12-16.06-7.56-16.06-16.59l0-48.89c0-9.09,7.39-16.48,16.48-16.48
			c8.99,0,16.3,7.39,16.3,16.48l0.01,48.98c0,9.01-7.23,16.41-16.12,16.5H145.13z M145.3,70.56c-5.47,0-9.92,4.45-9.92,9.92l0,48.89
			c0,5.46,4.28,9.97,9.54,10.03h0.53c5.28-0.05,9.59-4.51,9.59-9.94l-0.01-48.98C155.04,74.91,150.76,70.56,145.3,70.56z"/>
	</g>
	<g>
		<path class="st0" d="M118.91,67.28c-7.29,0-13.2,5.91-13.2,13.2v49.01c0,7.29,5.91,13.2,13.2,13.2l0,0c7.29,0,13.2-5.91,13.2-13.2
			V80.48C132.1,73.19,126.2,67.28,118.91,67.28L118.91,67.28z"/>
		<path class="st1" d="M118.91,145.96c-9.08,0-16.47-7.39-16.47-16.47V80.48c0-9.09,7.39-16.48,16.47-16.48s16.47,7.39,16.47,16.48
			v49.01C135.38,138.57,127.99,145.96,118.91,145.96z M118.91,70.56c-5.47,0-9.92,4.45-9.92,9.92v49.01c0,5.47,4.45,9.92,9.92,9.92
			c5.47,0,9.92-4.45,9.92-9.92V80.48C128.83,75.01,124.38,70.56,118.91,70.56z"/>
	</g>
	<g>
		<path class="st0" d="M171.53,67.28c-7.29,0-13.2,5.91-13.2,13.2v49.01c0,7.29,5.91,13.2,13.2,13.2l0,0c7.29,0,13.2-5.91,13.2-13.2
			V80.48C184.72,73.19,178.81,67.28,171.53,67.28L171.53,67.28z"/>
		<path class="st1" d="M171.53,145.96c-9.09,0-16.48-7.39-16.48-16.47V80.48c0-9.09,7.39-16.48,16.48-16.48
			C180.61,64,188,71.4,188,80.48v49.01C188,138.57,180.61,145.96,171.53,145.96z M171.53,70.56c-5.47,0-9.92,4.45-9.92,9.92v49.01
			c0,5.47,4.45,9.92,9.92,9.92c5.47,0,9.92-4.45,9.92-9.92V80.48C181.45,75.01,177,70.56,171.53,70.56z"/>
	</g>
	<g>
		<path class="st0" d="M173.68,112.51h-34.07c-9.57,0-14.48,6.43-14.48,14.35c0,5.83,4.64,13.22,15.12,13.22h19.58l13.84,10.83
			l20.2-0.73C194.04,127.86,195.98,112.51,173.68,112.51z"/>
		<path class="st1" d="M173.67,154.19c-0.71,0-1.42-0.23-2.02-0.7l-12.95-10.13h-18.46c-11.95,0-18.4-8.5-18.4-16.5
			c0-10.55,7.14-17.63,17.76-17.63h34.07c7.95,0,13.66,1.87,17.45,5.71c6.4,6.49,6.26,17.11,6.08,30.55
			c-0.02,1.53-0.04,3.1-0.05,4.71c-0.01,1.8-1.48,3.25-3.28,3.25c-0.01,0-0.01,0-0.02,0c-1.81-0.01-3.27-1.49-3.25-3.3
			c0.01-1.62,0.03-3.21,0.05-4.75c0.16-11.91,0.28-21.32-4.19-25.86c-2.5-2.53-6.68-3.76-12.78-3.76h-34.07
			c-7.01,0-11.2,4.14-11.2,11.07c0,4,3.15,9.95,11.84,9.95h19.58c0.73,0,1.44,0.25,2.02,0.7l13.84,10.83
			c1.43,1.12,1.68,3.18,0.56,4.6C175.61,153.76,174.64,154.19,173.67,154.19z"/>
	</g>
	<g>
		<path class="st0" d="M92.96,131.76c-7.12,0-12.88-5.77-12.88-12.88V86.55c0-7.12,5.77-12.88,12.88-12.88l0,0
			c7.12,0,12.88,5.77,12.88,12.88v32.33C105.85,125.99,100.08,131.76,92.96,131.76L92.96,131.76z"/>
		<path class="st1" d="M92.96,135.04c-8.91,0-16.16-7.25-16.16-16.16V86.55c0-8.91,7.25-16.16,16.16-16.16
			c8.91,0,16.16,7.25,16.16,16.16v32.33C109.13,127.79,101.88,135.04,92.96,135.04z M92.96,76.94c-5.3,0-9.6,4.31-9.6,9.61v32.33
			c0,5.3,4.31,9.6,9.6,9.6c5.3,0,9.61-4.31,9.61-9.6V86.55C102.57,81.25,98.26,76.94,92.96,76.94z"/>
	</g>
</g>
<g>
</g>
<g>
</g>
<g>
</g>
<g>
</g>
<g>
</g>
<g>
</g>
<g>
</g>
<g>
</g>
<g>
</g>
<g>
</g>
<g>
</g>
<g>
</g>
<g>
</g>
<g>
</g>
<g>
</g>
</svg>
