<?xml version="1.0" encoding="utf-8"?>
<!-- Generator: Adobe Illustrator 24.2.0, SVG Export Plug-In . SVG Version: 6.00 Build 0)  -->
<svg version="1.1" id="レイヤー_1" xmlns="http://www.w3.org/2000/svg" xmlns:xlink="http://www.w3.org/1999/xlink" x="0px"
	 y="0px" viewBox="0 0 256 256" style="enable-background:new 0 0 256 256;" xml:space="preserve">
<style type="text/css">
	.st0{fill:#FFFFFF;}
	.st1{fill:#333333;}
</style>
<g>
	<g>
		<g>
			<g>
				<g>
					<g>
						<path class="st0" d="M134.4,6.3c-7.2,0-13,5.8-13.2,13V132c0,3.6-1.5,6.9-3.9,9.3c-2.4,2.4-5.7,3.8-9.4,3.8
							c-7.3,0-12.5-5.9-13.1-12.8v-7.9c0,3.6-1.5,6.9-3.9,9.3c-2.4,2.4-5.7,3.8-9.4,3.8c-7.3,0-13.3-5.9-13.3-13.1v-9.3
							c0,7-5.8,12.8-12.9,12.8c-7.1,0-12.9-5.7-12.9-12.8l0,43.5c0,6.7,1.2,12.9,2.6,18.2c4.1,14.8,6.3,24.9,7,38.5
							c0.3,5,0.1,10.1-0.5,15.1l0,0.1c-0.5,4.3,1.8,8.6,6,10.9c6.8,3.8,19.4,8.4,40.3,8.3c22.1-0.1,34.1-5.8,39.9-10
							c3.1-2.2,4.8-5.5,4.8-9v-0.1c1-8.2,1.7-25.6,14.1-38.4c17.7-13,25.9-34.2,33.4-42.7l35.6-29.3c5.3-4.5,8.1-11.7,1.3-19.9
							c-6.3-7.6-22.5,1.6-26.5,3.9l-52.9,38.4V19.7c0-3.7-1.5-7.1-3.9-9.5C141.4,7.8,138.1,6.3,134.4,6.3z"/>
						<path class="st1" d="M39.2,115.2L39.2,115.2L39.2,115.2L39.2,115.2l0,43.5c0,6.1,0.9,12.5,2.7,19c4.1,14.7,6.2,24.6,6.9,37.8
							c0.2,4.7,0.1,9.6-0.4,14.5c-0.6,5.8,2.4,11.3,7.6,14.2c7.2,4,20.3,8.8,41.9,8.7c22.6-0.1,35.2-5.9,41.9-10.7
							c3.9-2.8,6.1-7,6.2-11.5c0.1-0.7,0.2-1.6,0.3-2.4c0.9-8.6,2.5-22.9,12.7-33.7c12.3-9.1,20-21.7,26.1-31.8
							c2.8-4.6,5.2-8.5,7.4-11.1l35.4-29.1c6.2-5.3,9.9-14.5,1.7-24.4c-3.7-4.5-12.1-7.7-30.7,3.2c-0.1,0.1-0.2,0.1-0.3,0.2
							L151,136.1V19.7c0-4.4-1.8-8.6-4.9-11.8c-3.2-3.2-7.3-4.9-11.8-4.9c-9,0-16.2,7.1-16.5,16.2V132c0,2.6-1,5.1-2.9,7
							c-1.9,1.9-4.4,2.9-7,2.9c-5.9,0-9.4-4.9-9.8-9.7v-7.7c0-1.8-1.5-3.3-3.3-3.3c-1.8,0-3.3,1.5-3.3,3.3c0,2.6-1.1,5.1-2.9,7
							c-1.9,1.9-4.4,2.9-7,2.9c-5.5,0-10-4.4-10-9.8v-9.3c0-1.8-1.5-3.3-3.3-3.3c-1.8,0-3.3,1.5-3.3,3.3c0,5.3-4.3,9.5-9.6,9.5
							c-5.3,0-9.7-4.3-9.7-9.5l0,0c0-1.8-1.5-3.3-3.3-3.3C40.7,111.9,39.2,113.4,39.2,115.2z M55.5,219.9c0-1.6,0-3.2-0.1-4.8
							c-0.7-13.8-2.9-24-7.1-39.2c-1.6-6-2.5-11.8-2.5-17.3l0-30.6c2.7,2,6,3.1,9.7,3.1c3.8,0,7.2-1.3,10-3.4
							c1.6,7.4,8.2,13,16.2,13c4,0,7.8-1.4,10.8-4c2.2,6.8,8.3,11.6,15.5,11.6c4.4,0,8.6-1.7,11.7-4.8c3.1-3.1,4.8-7.2,4.8-11.6
							V19.4c0.1-5.4,4.5-9.8,9.9-9.8h0c2.6,0,5.2,1,7,2.9c1.9,1.9,3,4.5,3,7.2v122.8c0,1.2,0.7,2.3,1.8,2.9c1.1,0.6,2.4,0.4,3.4-0.3
							l52.8-38.3c11-6.4,19.2-8.1,22.1-4.6c5.8,7.1,2.7,12.3-0.9,15.4l-35.6,29.3c-0.1,0.1-0.3,0.2-0.4,0.4c-2.6,3-5.2,7.3-8.3,12.2
							c-5.9,9.7-13.3,21.7-24.6,30.1c-0.1,0.1-0.3,0.2-0.4,0.4c-11.9,12.4-13.7,28.8-14.7,37.7c-0.1,0.9-0.2,1.8-0.3,2.5
							c0,0.1,0,0.3,0,0.4c0,2.5-1.3,4.9-3.5,6.5c-4.8,3.5-16,9.4-38,9.4c-20.1,0.1-32.2-4.2-38.7-7.9c-3-1.6-4.6-4.6-4.3-7.7
							C55.3,227.1,55.5,223.5,55.5,219.9z"/>
					</g>
				</g>
			</g>
		</g>
		<g>
			<path class="st0" d="M81.6,62.7c-7.3,0-13.3,5.9-13.3,13.1v48.6c0,7.2,5.9,13.1,13.3,13.1c3.7,0,7-1.5,9.4-3.8
				c2.4-2.4,3.9-5.7,3.9-9.3V75.8C94.9,68.6,89,62.7,81.6,62.7z"/>
			<path class="st1" d="M65.1,75.8v48.6c0,9,7.4,16.4,16.5,16.4c4.4,0,8.6-1.7,11.7-4.8c3.1-3,4.8-7.3,4.8-11.6V75.8
				c0-9-7.4-16.4-16.5-16.4S65.1,66.8,65.1,75.8z M91.6,124.5c0,2.6-1.1,5.1-2.9,7c-1.9,1.9-4.4,2.9-7,2.9c-5.5,0-10-4.4-10-9.8
				V75.8c0-5.4,4.5-9.8,10-9.8c5.5,0,10,4.4,10,9.8L91.6,124.5L91.6,124.5z"/>
		</g>
		<g>
			<path class="st0" d="M108.1,62.7c-7.3,0-13.3,5.9-13.3,13.1v56.5c0.5,7,5.8,12.8,13.1,12.8c3.7,0,7-1.5,9.4-3.8
				c2.4-2.4,3.9-5.6,3.9-9.3V75.8C121.2,68.6,115.4,62.7,108.1,62.7z"/>
			<path class="st1" d="M91.6,75.8v56.5c0,0.1,0,0.2,0,0.2c0.7,9,7.7,15.9,16.4,15.9c4.4,0,8.6-1.7,11.7-4.8
				c3.1-3.1,4.8-7.2,4.8-11.6V75.8c0-9-7.3-16.4-16.4-16.4C99,59.5,91.6,66.8,91.6,75.8z M98.2,132.2V75.8c0-5.4,4.5-9.8,10-9.8
				c5.4,0,9.8,4.4,9.8,9.8V132c0,2.6-1,5.1-2.9,7c-1.9,1.9-4.4,2.9-7,2.9C102.1,141.9,98.6,137,98.2,132.2z"/>
		</g>
		<g>
			<path class="st0" d="M55.4,70.3c-7.1,0-12.9,5.7-12.9,12.8v32.1c0,7,5.8,12.8,12.9,12.8c7.1,0,12.9-5.7,12.9-12.8V83.1
				c0-3.5-1.4-6.7-3.8-9C62.3,71.8,59,70.3,55.4,70.3z"/>
			<path class="st1" d="M39.2,83.1v32.1c0,8.8,7.3,16,16.2,16c8.9,0,16.2-7.2,16.2-16V83.1c0-4.3-1.7-8.3-4.8-11.3
				c-3-3-7.1-4.7-11.4-4.7C46.5,67.1,39.2,74.3,39.2,83.1z M65.1,115.2c0,5.3-4.3,9.5-9.6,9.5c-5.3,0-9.7-4.3-9.7-9.5V83.1
				c0-5.3,4.3-9.5,9.7-9.5c2.6,0,5,1,6.8,2.8c1.8,1.8,2.8,4.2,2.8,6.7V115.2z"/>
		</g>
	</g>
	<g>
		<path class="st1" d="M86.8,181.3c0,1.4,1,2.8,2.5,3.1c1.8,0.5,3.6-0.6,4-2.3c0.5-1.8,12-42.5,53.9-36.4c1.8,0.3,3.5-1,3.7-2.7
			c0.3-1.8-1-3.4-2.8-3.7c-47.8-7-61.1,40.7-61.2,41.1C86.9,180.7,86.8,181,86.8,181.3z"/>
	</g>
</g>
</svg>
