<?xml version="1.0" encoding="utf-8"?>
<!-- Generator: Adobe Illustrator 24.2.0, SVG Export Plug-In . SVG Version: 6.00 Build 0)  -->
<svg version="1.1" id="レイヤー_1" xmlns="http://www.w3.org/2000/svg" xmlns:xlink="http://www.w3.org/1999/xlink" x="0px"
	 y="0px" viewBox="0 0 256 256" style="enable-background:new 0 0 256 256;" xml:space="preserve">
<style type="text/css">
	.st0{fill:#FFFFFF;}
	.st1{fill:#333333;}
</style>
<g>
	<g>
		<path class="st0" d="M128.82,123.65V30.27c0-6.84-5.55-12.39-12.39-12.39c-6.84,0-12.17,5.63-12.17,12.47v97.51l-24.17-8.16
			l0.02,42.2c0.02,6.31,1.07,12.17,2.44,17.17c3.8,13.97,5.91,23.57,6.53,36.38c0.24,4.73,0.08,9.5-0.44,14.22l-0.02,0.13
			c-0.44,4.1,1.67,8.13,5.59,10.3c6.37,3.57,18.15,7.9,37.67,7.83c20.66-0.08,31.84-5.46,37.3-9.5c2.86-2.09,4.51-5.23,4.5-8.53
			l0-0.06c0.8-6.51,1.4-19,8.28-29.98c3.07-4.89,4.87-10.47,4.87-16.25v-26.24L128.82,123.65z"/>
		<path class="st1" d="M131.4,251c-19.84,0-31.98-4.46-38.69-8.22c-4.91-2.72-7.72-7.94-7.15-13.31c0-0.05,0.03-0.23,0.04-0.28
			c0.49-4.51,0.63-9.13,0.41-13.58c-0.6-12.47-2.64-21.81-6.43-35.72c-1.67-6.09-2.53-12.14-2.55-17.97l-0.02-42.21
			c0-0.99,0.48-1.92,1.28-2.5c0.8-0.58,1.84-0.73,2.78-0.41l20.11,6.79V30.35c0-8.57,6.84-15.55,15.24-15.55
			c8.53,0,15.47,6.94,15.47,15.47v93.38c0,1.7-1.38,3.08-3.07,3.08c-1.7,0-3.07-1.38-3.07-3.08V30.27c0-5.14-4.18-9.32-9.32-9.32
			c-5.1,0-9.09,4.13-9.09,9.4v97.5c0,0.99-0.48,1.92-1.28,2.5c-0.81,0.58-1.84,0.73-2.78,0.41l-20.11-6.79l0.02,37.92
			c0.02,5.28,0.8,10.79,2.33,16.36c3.91,14.35,6.01,24.01,6.64,37.04c0.24,4.77,0.09,9.71-0.45,14.7c-0.01,0.05-0.03,0.22-0.04,0.27
			c-0.29,2.79,1.25,5.58,4.05,7.13c6.08,3.41,17.18,7.45,35.69,7.45c0.16,0,0.31,0,0.47,0c20.51-0.08,31.03-5.6,35.48-8.89
			c2.08-1.52,3.26-3.72,3.26-6.05c0-0.13,0.01-0.32,0.02-0.45c0.09-0.74,0.18-1.56,0.28-2.45c0.75-6.91,1.99-18.48,8.45-28.78
			c2.87-4.59,4.4-9.64,4.4-14.61v-26.24c0-1.7,1.38-3.08,3.07-3.08c1.7,0,3.07,1.38,3.07,3.08v26.24c0,6.13-1.85,12.31-5.34,17.88
			c-5.71,9.1-6.81,19.38-7.55,26.18c-0.09,0.85-0.18,1.64-0.26,2.36c-0.05,4.3-2.14,8.24-5.76,10.89
			c-6.15,4.55-17.95,10.01-39.1,10.09C131.73,251,131.57,251,131.4,251z"/>
	</g>
	<g>
		<path class="st0" d="M141.22,8.08c-6.84,0-12.39,5.55-12.39,12.39v99.19l24.79,0.04V20.47C153.61,13.62,148.06,8.08,141.22,8.08z"
			/>
		<path class="st1" d="M153.61,122.77c-1.7,0-3.07-1.38-3.07-3.07V20.47c0-5.14-4.18-9.32-9.32-9.32c-5.14,0-9.32,4.18-9.32,9.32
			v99.19c0,1.7-1.38,3.08-3.07,3.08c-1.7,0-3.07-1.38-3.07-3.08V20.47c0-8.53,6.94-15.47,15.47-15.47c8.53,0,15.47,6.94,15.47,15.47
			v99.23C156.68,121.4,155.31,122.77,153.61,122.77z"/>
	</g>
	<g>
		<path class="st0" d="M174.73,25.15c-2.26-2.28-5.36-3.7-8.79-3.69c-6.7,0.02-12.14,5.51-12.34,12.33v88.25l24.79,1.89V34.14
			C178.38,30.62,176.98,27.45,174.73,25.15z"/>
		<path class="st1" d="M178.39,127.01c-1.7,0-3.07-1.38-3.07-3.07v-89.8c-0.01-2.57-1-5-2.79-6.84c-1.76-1.77-4.09-2.76-6.54-2.76
			c-0.01,0-0.02,0-0.03,0c-5.04,0.02-9.12,4.12-9.27,9.34l0,88.16c0,1.7-1.38,3.07-3.07,3.07c-1.7,0-3.07-1.38-3.07-3.07V33.79
			c0.25-8.64,7.02-15.37,15.4-15.4c0.02,0,0.04,0,0.05,0c4.11,0,7.99,1.63,10.93,4.6c2.93,3.01,4.54,6.96,4.55,11.14v89.81
			C181.47,125.63,180.09,127.01,178.39,127.01z"/>
	</g>
	<g>
		<path class="st1" d="M124.23,203.1c-1.7,0-3.07-1.38-3.07-3.07c0-21.46,4.88-37.16,14.5-46.66c8.92-8.8,18.6-8.74,19.02-8.77
			c1.7,0.02,3.06,1.42,3.03,3.11c-0.02,1.68-1.4,3.03-3.07,3.03c-0.01,0-0.01,0-0.02,0c-1.17,0-27.31,0.63-27.31,49.29
			C127.31,201.72,125.93,203.1,124.23,203.1z"/>
	</g>
	<g>
		<path class="st0" d="M92.18,140.09c-6.67,0-12.08-5.41-12.08-12.08V97.68c0-6.67,5.41-12.08,12.08-12.08l0,0
			c6.67,0,12.08,5.41,12.08,12.08v30.33C104.26,134.68,98.85,140.09,92.18,140.09L92.18,140.09z"/>
		<path class="st1" d="M92.18,143.17c-8.36,0-15.16-6.8-15.16-15.16V97.68c0-8.36,6.8-15.16,15.16-15.16
			c8.36,0,15.16,6.8,15.16,15.16v30.33C107.34,136.37,100.54,143.17,92.18,143.17z M92.18,88.67c-4.97,0-9.01,4.04-9.01,9.01v30.33
			c0,4.97,4.04,9.01,9.01,9.01c4.97,0,9.01-4.04,9.01-9.01V97.68C101.19,92.71,97.14,88.67,92.18,88.67z"/>
	</g>
	<g>
		<path class="st0" d="M167.88,122.04h-31.95c-8.97,0-13.58,6.03-13.58,13.46c0,5.47,4.36,12.4,14.18,12.4h18.37l12.98,10.15
			l18.95-0.69C186.98,136.44,188.8,122.04,167.88,122.04z"/>
		<path class="st1" d="M167.88,161.13c-0.66,0-1.33-0.21-1.89-0.65l-12.14-9.5h-17.31c-11.21,0-17.25-7.98-17.25-15.48
			c0-9.89,6.69-16.54,16.66-16.54h31.95c7.46,0,12.81,1.75,16.36,5.36c6.01,6.09,5.87,16.05,5.71,28.65
			c-0.02,1.44-0.04,2.91-0.05,4.42c-0.01,1.69-1.39,3.05-3.07,3.05c-0.01,0-0.01,0-0.02,0c-1.7-0.01-3.06-1.4-3.05-3.1
			c0.01-1.52,0.03-3.01,0.05-4.46c0.15-11.17,0.27-20-3.93-24.25c-2.34-2.37-6.26-3.52-11.99-3.52h-31.95
			c-6.58,0-10.51,3.88-10.51,10.39c0,3.75,2.96,9.33,11.1,9.33h18.37c0.69,0,1.35,0.23,1.89,0.65l12.98,10.15
			c1.34,1.05,1.57,2.98,0.53,4.32C169.69,160.73,168.79,161.13,167.88,161.13z"/>
	</g>
</g>
<g>
</g>
<g>
</g>
<g>
</g>
<g>
</g>
<g>
</g>
<g>
</g>
<g>
</g>
<g>
</g>
<g>
</g>
<g>
</g>
<g>
</g>
<g>
</g>
<g>
</g>
<g>
</g>
<g>
</g>
</svg>
