<?xml version="1.0" encoding="utf-8"?>
<!-- Generator: Adobe Illustrator 24.2.0, SVG Export Plug-In . SVG Version: 6.00 Build 0)  -->
<svg version="1.1" id="レイヤー_1" xmlns="http://www.w3.org/2000/svg" xmlns:xlink="http://www.w3.org/1999/xlink" x="0px"
	 y="0px" viewBox="0 0 256 256" style="enable-background:new 0 0 256 256;" xml:space="preserve">
<style type="text/css">
	.st0{fill:#FFFFFF;}
	.st1{fill:#333333;}
</style>
<g>
	<path class="st0" d="M200.61,77.74c-8.54-2.72-17.47,10.45-19.71,13.92l-10.76,21.09V30.13c-0.01-3.39-1.37-6.45-3.54-8.68
		c-2.19-2.21-5.18-3.57-8.49-3.56c-6.47,0.02-11.72,5.32-11.91,11.9V16.94c0-6.61-5.36-11.97-11.97-11.97
		c-6.61,0-11.97,5.36-11.97,11.97v9.47c0-6.61-5.36-11.97-11.97-11.97c-6.61,0-11.75,5.43-11.75,12.04V62.5
		c-0.42-6.22-5.52-11.14-11.76-11.14c-6.52,0-11.59,5.43-11.59,12.04v49.35l0.02,45.64c0.02,6.09,1.03,11.75,2.36,16.58
		c3.67,13.49,5.71,22.76,6.31,35.12c0.23,4.57,0.07,9.18-0.42,13.73l-0.02,0.12c-0.42,3.96,1.61,7.85,5.4,9.95
		c6.15,3.45,17.53,7.63,36.37,7.56c19.95-0.07,30.74-5.27,36.01-9.17c2.76-2.02,4.36-5.05,4.34-8.24l0-0.06
		c0.93-7.53,1.57-23.34,12.7-35.01c11.81-12.88,10.24-46.17,12.8-56.13l16.67-38.38C210.19,88.61,209.84,80.68,200.61,77.74z"/>
	<path class="st1" d="M173.11,30.12v70.3l5.14-10.11c0.05-0.09,0.1-0.18,0.15-0.27c4.51-6.97,13.54-18.2,23.11-15.13
		c5.57,1.77,8.1,5.08,9.24,7.55c1.74,3.77,1.65,8.56-0.26,13.14l-16.59,38.19c-0.64,2.65-1.02,7.26-1.46,12.58
		c-1.21,14.63-2.87,34.67-11.98,44.61c-9.38,9.85-10.81,23.02-11.66,30.9c-0.09,0.83-0.17,1.59-0.26,2.29
		c-0.04,4.15-2.06,7.95-5.56,10.51c-5.95,4.4-17.33,9.67-37.75,9.74c-0.16,0-0.32,0-0.48,0c-19.16,0-30.88-4.31-37.36-7.94
		c-4.74-2.62-7.45-7.67-6.9-12.85c0-0.05,0.03-0.22,0.04-0.27c0.47-4.36,0.61-8.82,0.39-13.11c-0.58-12.04-2.55-21.06-6.2-34.49
		c-1.61-5.88-2.44-11.72-2.46-17.35l-0.02-95c0-8.28,6.53-15.01,14.56-15.01c3.29,0,6.33,1.09,8.79,2.94V26.48
		c0-8.28,6.6-15.01,14.72-15.01c3.46,0,6.64,1.18,9.17,3.16C120.6,7.48,126.8,2,134.25,2c8.23,0,14.93,6.7,14.93,14.94v1.04
		c2.48-1.91,5.57-3.03,8.93-3.05c3.92-0.02,7.75,1.56,10.6,4.44C168.72,19.36,173.11,23.16,173.11,30.12z M86.81,54.33
		c-4.83,0-8.62,3.99-8.62,9.07l0.02,94.99c0.02,5.1,0.78,10.42,2.25,15.8c3.77,13.85,5.8,23.18,6.41,35.76
		c0.24,4.6,0.09,9.38-0.44,14.19c-0.01,0.05-0.03,0.22-0.04,0.26c-0.28,2.69,1.21,5.39,3.91,6.89c5.87,3.29,16.59,7.19,34.46,7.19
		c0.15,0,0.3,0,0.46,0c19.81-0.07,29.97-5.41,34.26-8.59c2.01-1.47,3.15-3.59,3.14-5.84c0-0.13,0.01-0.31,0.02-0.44
		c0.09-0.72,0.17-1.52,0.27-2.38c0.93-8.62,2.49-23.05,13.23-34.31c7.7-8.4,9.26-27.27,10.4-41.04c0.49-5.97,0.88-10.68,1.68-13.78
		c0.04-0.15,0.09-0.3,0.15-0.44l16.67-38.38c1.26-3.02,1.39-6.06,0.34-8.32c-0.93-2.01-2.83-3.49-5.65-4.39
		c-4.92-1.57-11.59,5.44-16.24,12.57l-20.43,40.14c-0.42,0.83-1.21,1.41-2.12,1.58c-1.16,0.22-28.73,5.98-28.73,52.12
		c0,1.64-1.33,2.97-2.97,2.97c-1.64,0-2.97-1.33-2.97-2.97c0-45.65,25.51-55.75,32.12-57.6l8.8-17.29V30.13
		c-0.01-2.48-0.97-4.83-2.69-6.61c-1.7-1.71-3.95-2.66-6.32-2.66c-0.01,0-0.02,0-0.03,0c-4.86,0.02-8.78,3.96-8.95,8.98v82.91
		c0,1.64-1.33,2.97-2.97,2.97c-1.64,0-2.97-1.33-2.97-2.97V16.94c0-4.96-4.04-9-9-9c-4.96,0-9,4.04-9,9v95.81
		c0,1.64-1.33,2.97-2.97,2.97c-1.64,0-2.97-1.33-2.97-2.97V26.4c0-4.96-4.04-9-9-9c-4.92,0-8.78,3.99-8.78,9.08v35.73
		c0.03,0.37,0.04,0.74,0.04,1.11v49.43c0,1.64-1.33,2.97-2.97,2.97c0,0,0,0,0,0c-1.64,0-2.97-1.32-2.97-2.96l-0.04-50.3
		C95.17,57.9,91.39,54.33,86.81,54.33z"/>
</g>
<g>
</g>
<g>
</g>
<g>
</g>
<g>
</g>
<g>
</g>
<g>
</g>
<g>
</g>
<g>
</g>
<g>
</g>
<g>
</g>
<g>
</g>
<g>
</g>
<g>
</g>
<g>
</g>
<g>
</g>
</svg>
