<?xml version="1.0" encoding="utf-8"?>
<!-- Generator: Adobe Illustrator 24.2.0, SVG Export Plug-In . SVG Version: 6.00 Build 0)  -->
<svg version="1.1" id="レイヤー_1" xmlns="http://www.w3.org/2000/svg" xmlns:xlink="http://www.w3.org/1999/xlink" x="0px"
	 y="0px" viewBox="0 0 256 256" style="enable-background:new 0 0 256 256;" xml:space="preserve">
<style type="text/css">
	.st0{fill:#FFFFFF;}
	.st1{fill:#333333;}
</style>
<g>
	<g>
		<path class="st0" d="M80.54,113.58l0.02,44.81c0.02,6.7,1.14,12.92,2.59,18.23c4.04,14.83,6.27,25.03,6.93,38.63
			c0.26,5.02,0.08,10.09-0.47,15.1l-0.02,0.13c-0.46,4.36,1.77,8.63,5.94,10.94c6.76,3.79,19.27,8.39,40,8.31
			c21.94-0.08,33.81-5.8,39.6-10.08c3.04-2.22,4.79-5.55,4.78-9.06l0-0.07c0.85-6.91,1.49-20.18,8.79-31.84
			c3.26-5.2,5.17-11.12,5.17-17.25v-27.86L80.54,113.58z"/>
		<path class="st1" d="M135.03,253c-21.07,0-33.96-4.74-41.08-8.73c-5.21-2.88-8.2-8.44-7.59-14.14c0-0.06,0.03-0.24,0.04-0.3
			c0.52-4.79,0.67-9.69,0.43-14.42c-0.64-13.24-2.8-23.16-6.82-37.94c-1.77-6.45-2.68-12.88-2.71-19.08l-0.02-44.83
			c0-1.8,1.46-3.27,3.26-3.27c0,0,0,0,0,0c1.8,0,3.27,1.46,3.27,3.26l0.02,44.82c0.02,5.62,0.85,11.46,2.48,17.37
			c4.15,15.24,6.38,25.5,7.05,39.33c0.26,5.06,0.1,10.32-0.48,15.61c-0.01,0.05-0.03,0.24-0.04,0.29c-0.31,2.96,1.33,5.93,4.3,7.57
			c6.46,3.62,18.24,7.91,37.9,7.91c0.17,0,0.33,0,0.5,0c21.78-0.08,32.95-5.95,37.68-9.44c2.21-1.61,3.46-3.95,3.45-6.42
			c0-0.14,0.01-0.34,0.03-0.48c0.1-0.79,0.19-1.67,0.29-2.62c0.79-7.34,2.12-19.62,8.98-30.55c3.05-4.87,4.67-10.24,4.67-15.52
			v-27.86c0-1.8,1.46-3.27,3.27-3.27c1.8,0,3.27,1.46,3.27,3.27v27.86c0,6.5-1.96,13.07-5.67,18.99
			c-6.05,9.66-7.23,20.57-8.01,27.78c-0.1,0.91-0.19,1.75-0.28,2.52c-0.05,4.57-2.27,8.75-6.12,11.56
			c-6.54,4.84-19.06,10.63-41.52,10.71C135.38,253,135.2,253,135.03,253z"/>
	</g>
	<g>
		<path class="st0" d="M181.04,13.18c-2.4-2.42-5.7-3.93-9.33-3.92c-7.12,0.03-12.89,5.85-13.1,13.09v97.51l26.32-1.8V22.72
			C184.91,19,183.42,15.63,181.04,13.18z"/>
		<path class="st1" d="M158.61,123.13c-1.8,0-3.27-1.46-3.27-3.27V22.35c0.27-9.18,7.45-16.32,16.35-16.35c0.02,0,0.04,0,0.06,0
			c4.36,0,8.48,1.73,11.6,4.89c3.11,3.2,4.82,7.39,4.83,11.83v95.35c0,1.8-1.46,3.27-3.27,3.27c-1.8,0-3.27-1.46-3.27-3.27V22.73
			c-0.01-2.73-1.06-5.31-2.96-7.27c-1.87-1.88-4.34-2.93-6.95-2.93c-0.01,0-0.02,0-0.03,0c-5.36,0.02-9.68,4.38-9.85,9.92l0,97.41
			C161.87,121.67,160.41,123.13,158.61,123.13z"/>
	</g>
	<g>
		<path class="st0" d="M127.42,198.87l32.29-55.6C159.7,143.27,127.42,142.85,127.42,198.87z"/>
		<path class="st1" d="M127.41,202.13c-1.8,0-3.27-1.46-3.27-3.27c0-22.79,5.18-39.46,15.4-49.55c9.47-9.35,19.78-9.28,20.2-9.32
			c1.8,0.02,3.25,1.5,3.22,3.31c-0.02,1.79-1.48,3.22-3.27,3.22c-0.01,0-0.01,0-0.02,0c-1.24,0-29,0.67-29,52.33
			C130.68,200.67,129.22,202.13,127.41,202.13z"/>
	</g>
	<g>
		<path class="st0" d="M145.47,147.01c-7.27-0.25-12.46-4.61-12.97-11.61l0-43.78l0-7.36v-5.55c0-7.25,5.88-13.15,13.15-13.15
			c7.25,0,12.97,5.9,12.97,13.15l0.01,56.42c0,3.64-1.47,6.94-3.85,9.3C152.34,146.83,148.61,147.12,145.47,147.01z"/>
		<path class="st1" d="M146.56,150.3c-0.42,0-0.82-0.01-1.2-0.02l0,0c-9.16-0.32-15.49-6.06-16.11-14.63
			c-0.01-0.08-0.01-0.16-0.01-0.24l0-56.69c0-9.05,7.36-16.41,16.41-16.41c8.95,0,16.23,7.36,16.23,16.41l0.01,56.42
			c0,4.42-1.71,8.54-4.82,11.62C154.01,149.77,149.82,150.3,146.56,150.3z M145.58,143.75c3.44,0.12,5.63-0.4,6.89-1.64
			c1.86-1.84,2.88-4.32,2.88-6.97l-0.01-56.42c0-5.54-4.26-9.88-9.7-9.88c-5.45,0-9.88,4.43-9.88,9.88l0,56.57
			C136.19,140.39,139.85,143.55,145.58,143.75L145.58,143.75z"/>
	</g>
	<g>
		<path class="st0" d="M93.38,135.23c-7.09,0-12.83-5.75-12.83-12.83V90.2c0-7.09,5.75-12.83,12.83-12.83l0,0
			c7.09,0,12.83,5.75,12.83,12.83v32.2C106.21,129.49,100.46,135.23,93.38,135.23L93.38,135.23z"/>
		<path class="st1" d="M93.38,138.5c-8.88,0-16.1-7.22-16.1-16.1V90.2c0-8.88,7.22-16.1,16.1-16.1c8.88,0,16.1,7.22,16.1,16.1v32.2
			C109.48,131.28,102.25,138.5,93.38,138.5z M93.38,80.63c-5.27,0-9.57,4.29-9.57,9.57v32.2c0,5.27,4.29,9.57,9.57,9.57
			c5.28,0,9.57-4.29,9.57-9.57V90.2C102.94,84.92,98.65,80.63,93.38,80.63z"/>
	</g>
	<g>
		<path class="st0" d="M119.35,65.57c-7.26,0-13.14,5.88-13.14,13.14v48.81c0,7.26,5.88,13.14,13.14,13.14l0,0
			c7.26,0,13.14-5.88,13.14-13.14V78.71C132.5,71.45,126.61,65.57,119.35,65.57L119.35,65.57z"/>
		<path class="st1" d="M119.35,143.93c-9.05,0-16.41-7.36-16.41-16.41V78.71c0-9.05,7.36-16.41,16.41-16.41
			c9.05,0,16.41,7.36,16.41,16.41v48.81C135.76,136.57,128.4,143.93,119.35,143.93z M119.35,68.83c-5.45,0-9.88,4.43-9.88,9.88
			v48.81c0,5.45,4.43,9.88,9.88,9.88c5.45,0,9.88-4.43,9.88-9.88V78.71C129.23,73.27,124.8,68.83,119.35,68.83z"/>
	</g>
	<g>
		<path class="st0" d="M173.77,116.06h-33.93c-9.53,0-14.42,6.41-14.42,14.29c0,5.81,4.63,13.17,15.06,13.17h19.51l13.78,10.78
			l20.12-0.73C194.05,131.35,195.98,116.06,173.77,116.06z"/>
		<path class="st1" d="M173.76,157.57c-0.7,0-1.41-0.23-2.01-0.69l-12.9-10.09h-18.38c-11.9,0-18.32-8.47-18.32-16.44
			c0-10.5,7.11-17.56,17.69-17.56h33.93c7.92,0,13.6,1.86,17.38,5.69c6.38,6.46,6.24,17.04,6.06,30.43
			c-0.02,1.53-0.04,3.09-0.05,4.69c-0.01,1.8-1.47,3.24-3.27,3.24c-0.01,0-0.01,0-0.02,0c-1.8-0.01-3.25-1.49-3.24-3.29
			c0.01-1.62,0.03-3.19,0.05-4.73c0.16-11.86,0.28-21.23-4.18-25.75c-2.48-2.52-6.65-3.74-12.73-3.74h-33.93
			c-6.99,0-11.16,4.12-11.16,11.03c0,3.98,3.14,9.91,11.79,9.91h19.51c0.73,0,1.44,0.24,2.01,0.69l13.78,10.78
			c1.42,1.11,1.67,3.16,0.56,4.58C175.69,157.14,174.73,157.57,173.76,157.57z"/>
	</g>
</g>
<g>
</g>
<g>
</g>
<g>
</g>
<g>
</g>
<g>
</g>
<g>
</g>
<g>
</g>
<g>
</g>
<g>
</g>
<g>
</g>
<g>
</g>
<g>
</g>
<g>
</g>
<g>
</g>
<g>
</g>
</svg>
