<?xml version="1.0" encoding="utf-8"?>
<!-- Generator: Adobe Illustrator 24.2.0, SVG Export Plug-In . SVG Version: 6.00 Build 0)  -->
<svg version="1.1" id="レイヤー_1" xmlns="http://www.w3.org/2000/svg" xmlns:xlink="http://www.w3.org/1999/xlink" x="0px"
	 y="0px" viewBox="0 0 256 256" style="enable-background:new 0 0 256 256;" xml:space="preserve">
<style type="text/css">
	.st0{fill:none;}
	.st1{fill:#FFFFFF;}
	.st2{fill:#333333;}
</style>
<g>
	<g>
		<g>
			<path class="st0" d="M158.14,133.68c0.43-0.11,0.68-0.16,0.68-0.16l6.36-12.49L158.14,133.68z"/>
			<path class="st1" d="M201.54,75.96c-9.08-2.89-18.55,11.1-20.94,14.78l-13.07,25.67l12.99-94.52c0.48-3.57-0.51-6.99-2.46-9.64
				c-1.98-2.64-4.93-4.51-8.41-4.98c-6.81-0.91-13.1,3.9-14.26,10.8l-11.63,84.49v13.85l-50.62-5.1l-6.62-52.08
				c-0.89-6.96-7.17-11.9-14.04-11.03C65.62,49.08,61,55.49,61.89,62.45l6.61,52l-0.14,47.17c0.02,6.47,1.1,12.48,2.5,17.61
				c3.9,14.33,6.06,24.17,6.7,37.31c0.25,4.85,0.08,9.75-0.45,14.58l-0.02,0.13c-0.45,4.21,1.71,8.34,5.74,10.57
				c6.53,3.66,18.62,8.1,38.63,8.03c21.19-0.08,32.65-5.6,38.25-9.74c2.94-2.15,4.63-5.37,4.61-8.75v-0.06
				c0.99-7.99,1.67-24.79,13.49-37.19c12.54-13.68,10.88-49.03,13.6-59.62l17.7-40.76C211.71,87.51,211.34,79.08,201.54,75.96z"/>
		</g>
		<path class="st2" d="M120.97,253c-20.35,0-32.8-4.57-39.68-8.43c-5.03-2.79-7.92-8.15-7.33-13.65c0-0.05,0.03-0.24,0.04-0.29
			c0.5-4.63,0.65-9.36,0.42-13.92c-0.62-12.79-2.71-22.37-6.59-36.64c-1.71-6.23-2.59-12.44-2.62-18.43l0.14-46.99l-6.59-51.79
			c-0.53-4.2,0.53-8.34,2.98-11.67c2.5-3.4,6.18-5.56,10.35-6.09c4.17-0.52,8.29,0.62,11.61,3.22c3.31,2.6,5.42,6.34,5.96,10.53
			l6.31,49.59l44.65,4.5v-10.36c0-0.14,0.01-0.29,0.03-0.43l11.63-84.49c1.47-8.75,9.28-14.66,17.8-13.49
			c4.19,0.56,7.93,2.76,10.52,6.21c2.55,3.47,3.64,7.71,3.07,11.96L173.2,98.32l4.59-9.01c0.05-0.1,0.1-0.19,0.16-0.29
			c4.79-7.4,14.36-19.32,24.54-16.07c5.92,1.88,8.6,5.4,9.81,8.02c1.85,4,1.75,9.09-0.28,13.96l-17.62,40.57
			c-0.68,2.82-1.08,7.71-1.55,13.35c-1.29,15.54-3.04,36.83-12.72,47.39c-9.97,10.46-11.48,24.46-12.39,32.82
			c-0.09,0.87-0.18,1.69-0.27,2.43c-0.05,4.41-2.19,8.45-5.91,11.17c-6.31,4.67-18.41,10.27-40.1,10.35
			C121.3,253,121.13,253,120.97,253z M74.06,51.26c-0.39,0-0.79,0.02-1.18,0.08c-2.44,0.31-4.59,1.58-6.06,3.58
			c-1.49,2.02-2.13,4.56-1.8,7.14l6.61,52c0.02,0.14,0.02,0.27,0.02,0.41l-0.14,47.17c0.02,5.41,0.83,11.06,2.39,16.77
			c4.01,14.72,6.16,24.63,6.81,37.99c0.25,4.89,0.09,9.96-0.47,15.08c-0.01,0.05-0.03,0.23-0.04,0.28c-0.3,2.86,1.28,5.73,4.15,7.31
			c6.29,3.53,17.8,7.62,37.09,7.64c21.04-0.08,31.83-5.75,36.39-9.12c2.13-1.56,3.34-3.82,3.33-6.2c0-0.13,0.01-0.33,0.02-0.46
			c0.09-0.76,0.18-1.61,0.28-2.53c0.99-9.16,2.64-24.49,14.05-36.45c8.18-8.92,9.83-28.96,11.04-43.6
			c0.52-6.34,0.94-11.34,1.78-14.63c0.04-0.16,0.1-0.32,0.16-0.47l17.7-40.76c1.34-3.2,1.47-6.44,0.36-8.84
			c-0.99-2.14-3.01-3.7-6.01-4.66c-5.22-1.67-12.31,5.78-17.25,13.36l-21.7,42.64c-0.45,0.88-1.28,1.5-2.25,1.67
			c-1.23,0.23-30.52,6.35-30.52,55.36c0,1.74-1.41,3.15-3.15,3.15c-1.74,0-3.15-1.41-3.15-3.15c0-48.49,27.1-59.22,34.11-61.18
			l5.66-11.12c0.01-0.02,0.02-0.05,0.04-0.07l2.11-4.15l12.91-93.99c0.35-2.61-0.32-5.22-1.88-7.34c-1.55-2.06-3.79-3.39-6.29-3.72
			c-5.14-0.7-9.84,2.91-10.73,8.19l-11.58,84.19v13.64c0,0.89-0.38,1.74-1.04,2.34c-0.66,0.6-1.53,0.89-2.43,0.8l-50.62-5.1
			c-1.46-0.15-2.63-1.28-2.81-2.74l-6.62-52.08c-0.32-2.54-1.6-4.8-3.6-6.37C78.13,51.96,76.13,51.26,74.06,51.26z"/>
	</g>
	<g>
		<path class="st1" d="M131.06,145.44c-7.02-0.24-12.03-4.45-12.53-11.21l0-42.29l0-7.11v-5.36c0-7,5.68-12.7,12.7-12.7
			c7,0,12.52,5.7,12.52,12.7l0.01,54.5c0,3.51-1.42,6.7-3.72,8.98C137.69,145.26,134.09,145.54,131.06,145.44z"/>
		<path class="st2" d="M132.11,148.61c-0.4,0-0.79-0.01-1.16-0.02l0,0c-8.85-0.31-14.96-5.86-15.56-14.13
			c-0.01-0.08-0.01-0.15-0.01-0.23l0-54.76c0-8.74,7.11-15.85,15.85-15.85c8.64,0,15.68,7.11,15.68,15.85l0.01,54.5
			c0,4.27-1.65,8.25-4.66,11.22C139.31,148.1,135.26,148.61,132.11,148.61z M131.17,142.29c3.33,0.1,5.44-0.39,6.65-1.59
			c1.8-1.78,2.79-4.17,2.79-6.74l-0.01-54.5c0-5.35-4.11-9.55-9.37-9.55c-5.26,0-9.55,4.28-9.55,9.55l0,54.64
			C122.09,139.04,125.63,142.1,131.17,142.29L131.17,142.29z"/>
	</g>
	<g>
		<path class="st1" d="M105.83,66.78c-7.01,0-12.7,5.68-12.7,12.7v47.14c0,7.01,5.68,12.7,12.7,12.7l0,0c7.01,0,12.7-5.68,12.7-12.7
			V79.47C118.53,72.46,112.85,66.78,105.83,66.78L105.83,66.78z"/>
		<path class="st2" d="M105.83,142.46c-8.74,0-15.85-7.11-15.85-15.85V79.47c0-8.74,7.11-15.85,15.85-15.85s15.85,7.11,15.85,15.85
			v47.14C121.68,135.35,114.57,142.46,105.83,142.46z M105.83,69.93c-5.26,0-9.54,4.28-9.54,9.54v47.14c0,5.26,4.28,9.54,9.54,9.54
			c5.26,0,9.54-4.28,9.54-9.54V79.47C115.38,74.21,111.09,69.93,105.83,69.93z"/>
	</g>
</g>
<g>
</g>
<g>
</g>
<g>
</g>
<g>
</g>
<g>
</g>
<g>
</g>
<g>
</g>
<g>
</g>
<g>
</g>
<g>
</g>
<g>
</g>
<g>
</g>
<g>
</g>
<g>
</g>
<g>
</g>
</svg>
