<?xml version="1.0" encoding="utf-8"?>
<!-- Generator: Adobe Illustrator 24.2.0, SVG Export Plug-In . SVG Version: 6.00 Build 0)  -->
<svg version="1.1" id="レイヤー_1" xmlns="http://www.w3.org/2000/svg" xmlns:xlink="http://www.w3.org/1999/xlink" x="0px"
	 y="0px" viewBox="0 0 256 256" style="enable-background:new 0 0 256 256;" xml:space="preserve">
<style type="text/css">
	.st0{fill:#FFFFFF;}
	.st1{fill:#333333;}
</style>
<g>
	<g>
		<path class="st0" d="M158.57,146.64c1.21,6.87-3.39,13.42-10.26,14.63l0,0c-6.87,1.21-13.42-3.39-14.63-10.26L111.2,22.96
			c-1.21-6.87,3.39-13.42,10.26-14.63l0,0c6.87-1.21,13.42,3.39,14.63,10.26L158.57,146.64z"/>
		<path class="st1" d="M146.09,164.6c-3.21,0-6.34-0.98-9.02-2.86c-3.45-2.42-5.75-6.04-6.48-10.19L108.11,23.5
			c-0.73-4.15,0.2-8.33,2.62-11.78c2.42-3.45,6.04-5.75,10.18-6.48c4.15-0.73,8.33,0.2,11.78,2.62c3.45,2.42,5.75,6.04,6.48,10.18
			l22.48,128.05c0.73,4.15-0.2,8.33-2.62,11.78c-2.42,3.45-6.04,5.75-10.18,6.48C147.93,164.52,147.01,164.6,146.09,164.6z
			 M123.66,11.27c-0.55,0-1.11,0.05-1.66,0.15c-5.16,0.91-8.62,5.84-7.72,11l22.49,128.05c0.44,2.5,1.82,4.68,3.9,6.14
			c2.08,1.46,4.6,2.02,7.1,1.58c2.5-0.44,4.68-1.82,6.14-3.9c1.46-2.08,2.02-4.6,1.58-7.1l0,0L133,19.13
			c-0.44-2.5-1.82-4.68-3.9-6.14C127.48,11.86,125.59,11.27,123.66,11.27z"/>
	</g>
	<g>
		<path class="st0" d="M82.75,117.13l0.02,43.03c0.02,6.43,1.09,12.41,2.49,17.51c3.88,14.24,6.02,24.03,6.66,37.09
			c0.25,4.82,0.08,9.69-0.45,14.49l-0.02,0.13c-0.44,4.18,1.7,8.29,5.7,10.51c6.49,3.64,18.51,8.06,38.4,7.98
			c21.07-0.08,32.46-5.57,38.03-9.68c2.92-2.13,4.6-5.33,4.59-8.7l0-0.06c0.82-6.64,1.43-19.37,8.44-30.57
			c3.13-4.99,4.96-10.68,4.96-16.57v-26.75L82.75,117.13z"/>
		<path class="st1" d="M135.07,251c-20.23,0-32.61-4.55-39.45-8.38c-5-2.77-7.87-8.1-7.29-13.57c0-0.05,0.03-0.23,0.04-0.29
			c0.5-4.6,0.65-9.31,0.41-13.84c-0.62-12.71-2.69-22.24-6.55-36.43c-1.7-6.2-2.58-12.36-2.6-18.32l-0.02-43.04
			c0-1.73,1.4-3.14,3.13-3.14c0,0,0,0,0,0c1.73,0,3.14,1.4,3.14,3.13l0.02,43.03c0.02,5.39,0.82,11.01,2.38,16.68
			c3.98,14.63,6.12,24.49,6.77,37.77c0.25,4.86,0.09,9.91-0.46,14.99c-0.01,0.05-0.03,0.23-0.04,0.28c-0.3,2.85,1.27,5.69,4.13,7.27
			c6.2,3.48,17.52,7.59,36.39,7.59c0.16,0,0.32,0,0.48,0c20.91-0.08,31.64-5.71,36.18-9.07c2.12-1.55,3.32-3.79,3.31-6.16
			c0-0.13,0.01-0.33,0.02-0.46c0.09-0.76,0.18-1.6,0.28-2.51c0.76-7.05,2.04-18.84,8.62-29.34c2.93-4.68,4.48-9.83,4.48-14.9v-26.75
			c0-1.73,1.4-3.14,3.14-3.14c1.73,0,3.14,1.4,3.14,3.14v26.75c0,6.25-1.88,12.55-5.44,18.23c-5.81,9.28-6.95,19.75-7.69,26.68
			c-0.1,0.87-0.18,1.68-0.27,2.42c-0.04,4.38-2.18,8.4-5.87,11.1c-6.28,4.64-18.3,10.21-39.86,10.29
			C135.4,251,135.24,251,135.07,251z"/>
	</g>
	<g>
		<path class="st0" d="M179.25,20.73c-2.31-2.33-5.47-3.77-8.96-3.76c-6.83,0.03-12.37,5.62-12.58,12.57v89.98l25.27,1.92V29.89
			C182.97,26.31,181.54,23.08,179.25,20.73z"/>
		<path class="st1" d="M182.98,124.57c-1.73,0-3.14-1.4-3.14-3.14V29.89c-0.01-2.62-1.02-5.1-2.85-6.98
			c-1.79-1.81-4.17-2.81-6.67-2.81c-0.01,0-0.02,0-0.03,0c-5.14,0.02-9.3,4.2-9.45,9.52l0,89.89c0,1.73-1.4,3.14-3.14,3.14
			c-1.73,0-3.14-1.4-3.14-3.14V29.53c0.26-8.81,7.15-15.67,15.7-15.7c4.18-0.05,8.18,1.65,11.2,4.69c2.99,3.07,4.63,7.1,4.64,11.36
			v91.56C186.12,123.17,184.71,124.57,182.98,124.57z"/>
	</g>
	<g>
		<path class="st1" d="M127.76,202.16c-1.73,0-3.14-1.4-3.14-3.14c0-21.88,4.97-37.89,14.78-47.58c9.1-8.98,18.98-8.91,19.4-8.94
			c1.73,0.02,3.12,1.44,3.09,3.18c-0.02,1.72-1.42,3.09-3.14,3.09c-0.01,0-0.01,0-0.02,0c-1.19,0-27.85,0.64-27.85,50.25
			C130.89,200.76,129.49,202.16,127.76,202.16z"/>
	</g>
	<g>
		<path class="st0" d="M96.27,155.07c-6.7,1.19-13.1-3.28-14.28-9.98l-5.4-30.44c-1.19-6.7,3.28-13.1,9.98-14.28l0,0
			c6.7-1.19,13.1,3.28,14.28,9.98l5.4,30.44C107.44,147.48,102.97,153.88,96.27,155.07L96.27,155.07z"/>
		<path class="st1" d="M94.11,158.39c-7.35,0-13.88-5.27-15.21-12.76l-5.4-30.45c-0.72-4.06,0.18-8.17,2.55-11.55
			c2.37-3.39,5.91-5.65,9.97-6.37c4.07-0.73,8.17,0.18,11.55,2.55c3.38,2.36,5.64,5.9,6.36,9.97l5.4,30.44
			c0.72,4.07-0.18,8.17-2.55,11.55c-2.36,3.38-5.9,5.64-9.97,6.36C95.91,158.31,95.01,158.39,94.11,158.39z M88.74,103.3
			c-0.54,0-1.08,0.05-1.62,0.14c-2.41,0.43-4.52,1.77-5.93,3.78c-1.4,2.01-1.94,4.45-1.51,6.86l5.4,30.45
			c0.89,4.99,5.66,8.33,10.65,7.44c2.42-0.43,4.52-1.77,5.93-3.78c1.41-2.01,1.94-4.45,1.52-6.87l-5.4-30.44
			c-0.43-2.42-1.77-4.52-3.78-5.93C92.42,103.87,90.6,103.3,88.74,103.3z"/>
	</g>
	<g>
		<path class="st0" d="M109.85,88.8c-6.86,1.22-11.44,7.77-10.22,14.63l8.19,46.15c1.22,6.86,7.77,11.44,14.63,10.22l0,0
			c6.86-1.22,11.44-7.77,10.22-14.63l-8.19-46.15C123.26,92.16,116.71,87.58,109.85,88.8L109.85,88.8z"/>
		<path class="st1" d="M120.2,163.13c-3.2,0-6.31-0.97-8.99-2.84c-3.45-2.41-5.76-6.02-6.49-10.16l-8.18-46.15
			c-1.52-8.55,4.21-16.75,12.76-18.26c0,0,0,0,0,0c8.55-1.52,16.75,4.21,18.26,12.76l8.19,46.15c0.74,4.14-0.19,8.33-2.6,11.78
			c-2.41,3.45-6.02,5.76-10.16,6.49C122.06,163.05,121.13,163.13,120.2,163.13z M110.4,91.89c-5.15,0.92-8.6,5.85-7.68,11
			l8.19,46.15c0.44,2.49,1.83,4.67,3.91,6.12c2.08,1.45,4.59,2,7.09,1.56c2.5-0.44,4.67-1.83,6.12-3.91
			c1.45-2.08,2.01-4.59,1.56-7.09l-8.18-46.15C120.48,94.42,115.54,90.99,110.4,91.89L110.4,91.89z"/>
	</g>
	<g>
		<path class="st0" d="M172.27,119.51h-32.58c-9.15,0-13.85,6.15-13.85,13.72c0,5.58,4.44,12.65,14.46,12.65h18.73l13.23,10.35
			l19.32-0.7C191.74,134.19,193.6,119.51,172.27,119.51z"/>
		<path class="st1" d="M172.26,159.37c-0.68,0-1.36-0.22-1.93-0.67l-12.38-9.69H140.3c-11.43,0-17.59-8.13-17.59-15.78
			c0-10.09,6.83-16.86,16.98-16.86h32.58c7.6,0,13.06,1.79,16.68,5.46c6.12,6.21,5.99,16.36,5.82,29.21
			c-0.02,1.47-0.04,2.97-0.05,4.5c-0.01,1.72-1.41,3.11-3.14,3.11c-0.01,0-0.01,0-0.02,0c-1.73-0.01-3.12-1.43-3.11-3.16
			c0.01-1.55,0.03-3.07,0.05-4.54c0.15-11.39,0.27-20.39-4.01-24.73c-2.39-2.42-6.38-3.59-12.22-3.59h-32.58
			c-6.71,0-10.71,3.96-10.71,10.59c0,3.82,3.01,9.51,11.32,9.51h18.73c0.7,0,1.38,0.23,1.93,0.67l13.23,10.35
			c1.37,1.07,1.6,3.04,0.54,4.4C174.11,158.96,173.19,159.37,172.26,159.37z"/>
	</g>
</g>
<g>
</g>
<g>
</g>
<g>
</g>
<g>
</g>
<g>
</g>
<g>
</g>
<g>
</g>
<g>
</g>
<g>
</g>
<g>
</g>
<g>
</g>
<g>
</g>
<g>
</g>
<g>
</g>
<g>
</g>
</svg>
